<?xml version="1.0" encoding="utf-8"?>
<!-- Svg Vector Icons : http://www.onlinewebfonts.com/icon -->
<!DOCTYPE svg PUBLIC "-//W3C//DTD SVG 1.1//EN" "http://www.w3.org/Graphics/SVG/1.1/DTD/svg11.dtd">
<svg version="1.1" xmlns="http://www.w3.org/2000/svg" xmlns:xlink="http://www.w3.org/1999/xlink" x="0px" y="0px" viewBox="0 0 256 256" enable-background="new 0 0 256 256" xml:space="preserve">
<metadata> Svg Vector Icons : http://www.onlinewebfonts.com/icon </metadata>
<g><g><g><path fill="#FFFFFF" stroke="#FFFFFF" stroke-width="12" d="M183.6,8.6l-2,1l-37.4,111.1c-20.5,61.1-37.5,111.1-37.7,111.1c-0.2,0-11.7-19-25.6-42.1c-13.9-23.2-26.1-43-27.2-44.1l-1.8-1.9H31H10v4.7v4.7l4.6,0.1c2.5,0,10.9,0.1,18.7,0.1l14.1,0.1l28.1,46.5c15.5,25.5,28.6,47,29.3,47.6c1.5,1.5,4.9,1.5,6.4,0.1c0.6-0.7,16.9-48.2,38.9-113.6c20.8-61.9,38.2-113.3,38.6-114.4l0.8-1.9h28.2H246v-5v-5h-30.1C188.3,7.5,185.5,7.7,183.6,8.6z"/></g></g></g>
</svg>